<svg xmlns="http://www.w3.org/2000/svg" width="48" height="48" viewBox="0 0 48 48">
  <!-- Bell icon -->
  <path d="M24,44 C26.2,44 28,42.2 28,40 L20,40 C20,42.2 21.8,44 24,44 Z" fill="#6a9eff"/>
  <path d="M36,34 L12,34 C12,34 12,33 12,32 C12,31 14,30 15,29 C16,28 16,27 16,26 L16,18 C16,13.3 19.7,9.4 24.3,9 C29.4,8.6 34,12.6 34,18 L34,26 C34,27 34,28 35,29 C36,30 38,31 38,32 C38,33 38,34 38,34 L36,34 Z" fill="#f5f7fc" stroke="#6a9eff" stroke-width="2"/>
  <circle cx="24" cy="6" r="2" fill="#6a9eff"/>
  
  <!-- Notification waves -->
  <path d="M38,18 C41,22 42,25 42,28" fill="none" stroke="#6a9eff" stroke-width="1.5" stroke-linecap="round" opacity="0.6"/>
  <path d="M10,18 C7,22 6,25 6,28" fill="none" stroke="#6a9eff" stroke-width="1.5" stroke-linecap="round" opacity="0.6"/>
</svg>
